<svg width="12" height="12" viewBox="0 0 12 12" fill="none" xmlns="http://www.w3.org/2000/svg">
<path d="M10.4447 8.77624C10.4447 8.94124 10.408 9.11082 10.3301 9.27582C10.2522 9.44082 10.1513 9.59666 10.0184 9.74332C9.79383 9.99082 9.54633 10.1696 9.26675 10.2842C8.99175 10.3987 8.69383 10.4583 8.373 10.4583C7.9055 10.4583 7.40592 10.3483 6.87883 10.1237C6.35175 9.89916 5.82467 9.59666 5.30217 9.21624C4.77508 8.83124 4.2755 8.40499 3.79883 7.93291C3.32675 7.45624 2.9005 6.95666 2.52008 6.43416C2.14425 5.91166 1.84175 5.38916 1.62175 4.87124C1.40175 4.34874 1.29175 3.84916 1.29175 3.37249C1.29175 3.06082 1.34675 2.76291 1.45675 2.48791C1.56675 2.20832 1.74091 1.95166 1.98383 1.72249C2.27716 1.43374 2.598 1.29166 2.93716 1.29166C3.0655 1.29166 3.19383 1.31916 3.30841 1.37416C3.42758 1.42916 3.533 1.51166 3.6155 1.63082L4.67883 3.12957C4.76133 3.24416 4.82092 3.34957 4.86217 3.45041C4.90342 3.54666 4.92633 3.64291 4.92633 3.72999C4.92633 3.83999 4.89425 3.94999 4.83008 4.05541C4.7705 4.16082 4.68341 4.27082 4.57341 4.38082L4.22508 4.74291C4.17466 4.79332 4.15175 4.85291 4.15175 4.92624C4.15175 4.96291 4.15633 4.99499 4.1655 5.03166C4.17925 5.06832 4.193 5.09582 4.20217 5.12332C4.28467 5.27457 4.42675 5.47166 4.62841 5.70999C4.83466 5.94832 5.05466 6.19124 5.293 6.43416C5.5405 6.67707 5.77883 6.90166 6.02175 7.10791C6.26008 7.30957 6.45717 7.44707 6.613 7.52957C6.63592 7.53874 6.66342 7.55249 6.6955 7.56624C6.73217 7.57999 6.76883 7.58457 6.81008 7.58457C6.888 7.58457 6.94758 7.55707 6.998 7.50666L7.34633 7.16291C7.46092 7.04832 7.57092 6.96124 7.67633 6.90624C7.78175 6.84207 7.88717 6.80999 8.00175 6.80999C8.08883 6.80999 8.1805 6.82832 8.28133 6.86957C8.38217 6.91082 8.48758 6.97041 8.60217 7.04832L10.1192 8.12541C10.2384 8.20791 10.3209 8.30416 10.3713 8.41874C10.4172 8.53332 10.4447 8.64791 10.4447 8.77624Z" stroke="#22CCBB" stroke-width="0.6875" stroke-miterlimit="10"/>
</svg>
