<svg width="20" height="20" viewBox="0 0 20 20" fill="none" xmlns="http://www.w3.org/2000/svg">
<g clip-path="url(#clip0_1202_4448)">
<path d="M6.66673 14.1667L10.0001 17.5M10.0001 17.5L13.3334 14.1667M10.0001 17.5V10M17.4001 15.075C18.1246 14.5655 18.6679 13.8385 18.9511 12.9993C19.2344 12.1601 19.2429 11.2525 18.9754 10.4082C18.7079 9.56387 18.1783 8.82675 17.4635 8.30381C16.7486 7.78087 15.8858 7.49931 15.0001 7.50001H13.9501C13.6994 6.52323 13.2305 5.61605 12.5785 4.84674C11.9265 4.07743 11.1085 3.46606 10.1861 3.05863C9.26363 2.65121 8.26077 2.45836 7.25301 2.4946C6.24524 2.53084 5.25883 2.79523 4.36803 3.26786C3.47723 3.74049 2.70525 4.40905 2.11022 5.2232C1.51519 6.03735 1.11261 6.97588 0.932784 7.96813C0.752958 8.96038 0.800575 9.9805 1.07205 10.9517C1.34352 11.9229 1.83178 12.8198 2.50007 13.575" stroke="#667085" stroke-width="1.66667" stroke-linecap="round" stroke-linejoin="round"/>
</g>
<defs>
<clipPath id="clip0_1202_4448">
<rect width="20" height="20" fill="white"/>
</clipPath>
</defs>
</svg>
