<svg width="40" height="40" viewBox="0 0 40 40" fill="none" xmlns="http://www.w3.org/2000/svg">
<circle cx="20" cy="20" r="20" fill="white"/>
<path d="M10 18V22C10 24 11 25 13 25H14.43C14.8 25 15.17 25.11 15.49 25.3L18.41 27.13C20.93 28.71 23 27.56 23 24.59V15.41C23 12.43 20.93 11.29 18.41 12.87L15.49 14.7C15.17 14.89 14.8 15 14.43 15H13C11 15 10 16 10 18Z" stroke="#292D32" stroke-width="1.5"/>
<path d="M26 16C27.78 18.37 27.78 21.63 26 24" stroke="#292D32" stroke-width="1.5" stroke-linecap="round" stroke-linejoin="round"/>
<path d="M27.8301 13.5C30.7201 17.35 30.7201 22.65 27.8301 26.5" stroke="#292D32" stroke-width="1.5" stroke-linecap="round" stroke-linejoin="round"/>
</svg>
