<svg width="52" height="52" viewBox="0 0 52 52" fill="none" xmlns="http://www.w3.org/2000/svg">
<mask id="mask0_1202_2058" style="mask-type:luminance" maskUnits="userSpaceOnUse" x="0" y="0" width="52" height="52">
<path d="M26 50C39.2552 50 50 39.2552 50 26C50 12.7448 39.2552 2 26 2C12.7448 2 2 12.7448 2 26C2 39.2552 12.7448 50 26 50Z" fill="white" stroke="white" stroke-width="4" stroke-linejoin="round"/>
<path d="M14.0001 29.5999C15.9884 29.5999 17.6001 27.9882 17.6001 25.9999C17.6001 24.0117 15.9884 22.3999 14.0001 22.3999C12.0119 22.3999 10.4001 24.0117 10.4001 25.9999C10.4001 27.9882 12.0119 29.5999 14.0001 29.5999Z" fill="black"/>
<path d="M26.0001 29.5999C27.9884 29.5999 29.6001 27.9882 29.6001 25.9999C29.6001 24.0117 27.9884 22.3999 26.0001 22.3999C24.0119 22.3999 22.4001 24.0117 22.4001 25.9999C22.4001 27.9882 24.0119 29.5999 26.0001 29.5999Z" fill="black"/>
<path d="M38.0001 29.5999C39.9884 29.5999 41.6001 27.9882 41.6001 25.9999C41.6001 24.0117 39.9884 22.3999 38.0001 22.3999C36.0119 22.3999 34.4001 24.0117 34.4001 25.9999C34.4001 27.9882 36.0119 29.5999 38.0001 29.5999Z" fill="black"/>
</mask>
<g mask="url(#mask0_1202_2058)">
<path d="M-2.80127 -2.79966H54.7987V54.8003H-2.80127V-2.79966Z" fill="#3F51B5"/>
</g>
</svg>
