<svg width="24" height="25" viewBox="0 0 24 25" fill="none" xmlns="http://www.w3.org/2000/svg">
<path d="M6 20.5L3.7 22.8C3.38333 23.1167 3.02067 23.1873 2.612 23.012C2.204 22.8373 2 22.525 2 22.075V6.5C2 5.95 2.196 5.479 2.588 5.087C2.97933 4.69567 3.45 4.5 4 4.5H14.1C14.0333 4.83333 14 5.16667 14 5.5C14 5.83333 14.0333 6.16667 14.1 6.5H4V18.5H20V10.4C20.3833 10.3167 20.7417 10.204 21.075 10.062C21.4083 9.92067 21.7167 9.73333 22 9.5V18.5C22 19.05 21.8043 19.521 21.413 19.913C21.021 20.3043 20.55 20.5 20 20.5H6ZM13 16.5C13.2833 16.5 13.521 16.404 13.713 16.212C13.9043 16.0207 14 15.7833 14 15.5C14 15.2167 13.9043 14.979 13.713 14.787C13.521 14.5957 13.2833 14.5 13 14.5H7C6.71667 14.5 6.479 14.5957 6.287 14.787C6.09567 14.979 6 15.2167 6 15.5C6 15.7833 6.09567 16.0207 6.287 16.212C6.479 16.404 6.71667 16.5 7 16.5H13ZM17 13.5C17.2833 13.5 17.5207 13.404 17.712 13.212C17.904 13.0207 18 12.7833 18 12.5C18 12.2167 17.904 11.979 17.712 11.787C17.5207 11.5957 17.2833 11.5 17 11.5H7C6.71667 11.5 6.479 11.5957 6.287 11.787C6.09567 11.979 6 12.2167 6 12.5C6 12.7833 6.09567 13.0207 6.287 13.212C6.479 13.404 6.71667 13.5 7 13.5H17ZM15 8.5H7C6.71667 8.5 6.479 8.59567 6.287 8.787C6.09567 8.979 6 9.21667 6 9.5C6 9.78333 6.09567 10.021 6.287 10.213C6.479 10.4043 6.71667 10.5 7 10.5H18V10.4C17.3833 10.2667 16.8207 10.0373 16.312 9.712C15.804 9.38733 15.3667 8.98333 15 8.5ZM19 8.5C18.1667 8.5 17.4583 8.20833 16.875 7.625C16.2917 7.04167 16 6.33333 16 5.5C16 4.66667 16.2917 3.95833 16.875 3.375C17.4583 2.79167 18.1667 2.5 19 2.5C19.8333 2.5 20.5417 2.79167 21.125 3.375C21.7083 3.95833 22 4.66667 22 5.5C22 6.33333 21.7083 7.04167 21.125 7.625C20.5417 8.20833 19.8333 8.5 19 8.5Z" fill="#333333" fill-opacity="0.75"/>
<circle cx="19" cy="5.5" r="3" fill="#FD2727"/>
</svg>
