<svg width="24" height="25" viewBox="0 0 24 25" fill="none" xmlns="http://www.w3.org/2000/svg">
<path d="M19 17.5V12.3C18.5 12.4 18 12.5 17.5 12.5H17V18.5H7V11.5C7 8.7 9.2 6.5 12 6.5C12.1 5.2 12.7 4.1 13.5 3.2C13.2 2.8 12.6 2.5 12 2.5C10.9 2.5 10 3.4 10 4.5V4.8C7 5.7 5 8.4 5 11.5V17.5L3 19.5V20.5H21V19.5L19 17.5ZM10 21.5C10 22.6 10.9 23.5 12 23.5C13.1 23.5 14 22.6 14 21.5H10ZM21 7C21 8.9 19.4 10.5 17.5 10.5C15.6 10.5 14 8.9 14 7C14 5.1 15.6 3.5 17.5 3.5C19.4 3.5 21 5.1 21 7Z" fill="#333333" fill-opacity="0.75"/>
<circle cx="17.5" cy="7" r="3.5" fill="#FD2727"/>
</svg>
