<svg width="12" height="12" viewBox="0 0 12 12" fill="none" xmlns="http://www.w3.org/2000/svg">
<path d="M4.02091 9.08332H3.79175C1.95841 9.08332 1.04175 8.62499 1.04175 6.33332V4.04166C1.04175 2.20832 1.95841 1.29166 3.79175 1.29166H7.45841C9.29175 1.29166 10.2084 2.20832 10.2084 4.04166V6.33332C10.2084 8.16666 9.29175 9.08332 7.45841 9.08332H7.22925C7.08716 9.08332 6.94966 9.15207 6.86258 9.26666L6.17508 10.1833C5.87258 10.5867 5.37758 10.5867 5.07508 10.1833L4.38758 9.26666C4.31425 9.16582 4.14466 9.08332 4.02091 9.08332Z" stroke="#A5CA02" stroke-width="0.6875" stroke-miterlimit="10" stroke-linecap="round" stroke-linejoin="round"/>
<path d="M7.45663 5.41667H7.46075" stroke="#A5CA02" stroke-width="0.916667" stroke-linecap="round" stroke-linejoin="round"/>
<path d="M5.62289 5.41667H5.62701" stroke="#A5CA02" stroke-width="0.916667" stroke-linecap="round" stroke-linejoin="round"/>
<path d="M3.78915 5.41667H3.79327" stroke="#A5CA02" stroke-width="0.916667" stroke-linecap="round" stroke-linejoin="round"/>
</svg>
