<svg width="24" height="24" viewBox="0 0 24 24" fill="none" xmlns="http://www.w3.org/2000/svg">
<path d="M12.6284 4.81052L12.6284 4.81054L12.6336 4.81288C14.166 5.50151 15.4513 5.72358 16.5278 5.62577C17.1571 5.56859 17.7005 5.40332 18.166 5.17309C17.2814 6.89818 15.8278 8.83632 13.5058 9.96545L13.5039 9.9664C12.9912 10.2178 12.5754 10.4097 12.289 10.5382C12.2249 10.567 12.1673 10.5926 12.1165 10.6149L5.3189 7.30137L12.0547 4.54106C12.1871 4.60546 12.3715 4.69233 12.6284 4.81052ZM10.4701 13.4383V20.9086L3.98008 17.3929V10.1308L10.4701 13.4383ZM20.0301 17.3926L13.5301 20.9093V13.4385L20.0301 10.1302V17.3926Z" stroke="#333333" stroke-opacity="0.75" stroke-width="1.3"/>
</svg>
