<svg width="16" height="16" viewBox="0 0 16 16" fill="none" xmlns="http://www.w3.org/2000/svg">
<path d="M4.66677 12C4.53494 12 4.40607 11.9608 4.29646 11.8876C4.18686 11.8143 4.10143 11.7102 4.05098 11.5884C4.00054 11.4666 3.98733 11.3326 4.01305 11.2033C4.03876 11.074 4.10223 10.9552 4.19544 10.862L10.8621 4.19532C10.9878 4.07388 11.1562 4.00668 11.331 4.0082C11.5058 4.00972 11.673 4.07984 11.7966 4.20344C11.9203 4.32705 11.9904 4.49425 11.9919 4.66905C11.9934 4.84385 11.9262 5.01225 11.8048 5.13799L5.1381 11.8047C5.07628 11.8667 5.00281 11.9158 4.92192 11.9493C4.84104 11.9829 4.75433 12.0001 4.66677 12V12Z" fill="#333333"/>
<path d="M11.3334 12C11.2459 12.0001 11.1592 11.9829 11.0783 11.9493C10.9974 11.9158 10.9239 11.8667 10.8621 11.8047L4.19544 5.13799C4.074 5.01225 4.00681 4.84385 4.00833 4.66905C4.00984 4.49425 4.07996 4.32705 4.20356 4.20344C4.32717 4.07984 4.49438 4.00972 4.66917 4.0082C4.84397 4.00668 5.01237 4.07388 5.13811 4.19532L11.8048 10.862C11.898 10.9552 11.9615 11.074 11.9872 11.2033C12.0129 11.3326 11.9997 11.4666 11.9492 11.5884C11.8988 11.7102 11.8134 11.8143 11.7037 11.8876C11.5941 11.9608 11.4653 12 11.3334 12Z" fill="#333333"/>
</svg>
