<svg width="24" height="24" viewBox="0 0 24 24" fill="none" xmlns="http://www.w3.org/2000/svg">
<path d="M7.00003 18C6.80228 17.9999 6.60898 17.9413 6.44457 17.8314C6.28016 17.7215 6.15202 17.5653 6.07635 17.3826C6.00068 17.1999 5.98088 16.9989 6.01945 16.8049C6.05802 16.611 6.15322 16.4328 6.29303 16.293L16.293 6.29298C16.4816 6.11082 16.7342 6.01003 16.9964 6.01231C17.2586 6.01458 17.5094 6.11975 17.6948 6.30516C17.8803 6.49057 17.9854 6.74138 17.9877 7.00358C17.99 7.26578 17.8892 7.51838 17.707 7.70698L7.70703 17.707C7.61429 17.8 7.50409 17.8737 7.38276 17.924C7.26144 17.9743 7.13137 18.0001 7.00003 18V18Z" fill="#333333"/>
<path d="M16.9999 18C16.8686 18.0001 16.7385 17.9743 16.6172 17.924C16.4959 17.8737 16.3857 17.8 16.2929 17.707L6.29292 7.70698C6.11076 7.51838 6.00997 7.26578 6.01224 7.00358C6.01452 6.74138 6.11969 6.49057 6.3051 6.30516C6.49051 6.11975 6.74132 6.01458 7.00352 6.01231C7.26571 6.01003 7.51832 6.11082 7.70692 6.29298L17.7069 16.293C17.8467 16.4328 17.9419 16.611 17.9805 16.8049C18.0191 16.9989 17.9993 17.1999 17.9236 17.3826C17.8479 17.5653 17.7198 17.7215 17.5554 17.8314C17.391 17.9413 17.1977 17.9999 16.9999 18Z" fill="#333333"/>
</svg>
