<svg width="12" height="12" viewBox="0 0 12 12" fill="none" xmlns="http://www.w3.org/2000/svg">
<path d="M6.618 9.73417H3.72133C2.273 9.73417 1.79175 8.77167 1.79175 7.80459V3.94542C1.79175 2.49709 2.273 2.01584 3.72133 2.01584H6.618C8.06633 2.01584 8.54758 2.49709 8.54758 3.94542V7.80459C8.54758 9.25292 8.06175 9.73417 6.618 9.73417Z" stroke="#3F51B5" stroke-width="0.6875" stroke-linecap="round" stroke-linejoin="round"/>
<path d="M9.82177 8.2125L8.54761 7.31875V4.42667L9.82177 3.53292C10.4451 3.0975 10.9584 3.36333 10.9584 4.12875V7.62125C10.9584 8.38667 10.4451 8.6525 9.82177 8.2125Z" stroke="#3F51B5" stroke-width="0.6875" stroke-linecap="round" stroke-linejoin="round"/>
<path d="M6.14575 5.41666C6.52545 5.41666 6.83325 5.10885 6.83325 4.72916C6.83325 4.34946 6.52545 4.04166 6.14575 4.04166C5.76606 4.04166 5.45825 4.34946 5.45825 4.72916C5.45825 5.10885 5.76606 5.41666 6.14575 5.41666Z" stroke="#3F51B5" stroke-width="0.6875" stroke-linecap="round" stroke-linejoin="round"/>
</svg>
