<svg width="24" height="24" viewBox="0 0 24 24" fill="none" xmlns="http://www.w3.org/2000/svg">
<path d="M11.9998 7C13.3259 7 14.5977 7.52678 15.5354 8.46447C16.4731 9.40215 16.9998 10.6739 16.9998 12C16.9998 13.3261 16.4731 14.5979 15.5354 15.5355C14.5977 16.4732 13.3259 17 11.9998 17C10.6738 17 9.40199 16.4732 8.46431 15.5355C7.52663 14.5979 6.99984 13.3261 6.99984 12C6.99984 10.6739 7.52663 9.40215 8.46431 8.46447C9.40199 7.52678 10.6738 7 11.9998 7ZM11.9998 9C11.2042 9 10.4411 9.31607 9.87852 9.87868C9.31591 10.4413 8.99984 11.2044 8.99984 12C8.99984 12.7956 9.31591 13.5587 9.87852 14.1213C10.4411 14.6839 11.2042 15 11.9998 15C12.7955 15 13.5586 14.6839 14.1212 14.1213C14.6838 13.5587 14.9998 12.7956 14.9998 12C14.9998 11.2044 14.6838 10.4413 14.1212 9.87868C13.5586 9.31607 12.7955 9 11.9998 9ZM11.9998 2L14.3898 5.42C13.6498 5.15 12.8398 5 11.9998 5C11.1598 5 10.3498 5.15 9.60984 5.42L11.9998 2ZM3.33984 7L7.49984 6.65C6.89984 7.16 6.35984 7.78 5.93984 8.5C5.49984 9.24 5.24984 10 5.10984 10.79L3.33984 7ZM3.35984 17L5.11984 13.23C5.25984 14 5.52984 14.78 5.94984 15.5C6.36984 16.24 6.90984 16.86 7.49984 17.37L3.35984 17ZM20.6498 7L18.8798 10.79C18.7398 10 18.4698 9.23 18.0498 8.5C17.6298 7.78 17.0998 7.15 16.4998 6.64L20.6498 7ZM20.6398 17L16.4998 17.36C17.0898 16.85 17.6198 16.22 18.0398 15.5C18.4598 14.77 18.7298 14 18.8698 13.21L20.6398 17ZM11.9998 22L9.58984 18.56C10.3298 18.83 11.1398 19 11.9998 19C12.8198 19 13.6298 18.83 14.3698 18.56L11.9998 22Z" fill="#333333" fill-opacity="0.75"/>
</svg>
